<svg width="137" height="48" viewBox="0 0 137 48" fill="none" xmlns="http://www.w3.org/2000/svg"><path d="M44.148 45.425c-3.418 0-3.464-.587-2.272-3.675.28-.719.456-1.587.782-2.202h3.446c-.028.364-.847 2.5-.987 2.93l-.969 2.947zm32.59 0c-3.819 0-3.13-.989-2.272-3.582.251-.775.596-1.512.782-2.295h3.54l-1.78 5.122c-.084.242-.205.503-.27.755zm-50.007-7.183c-.242 1.045-2.403 6.027-2.729 7.342-.298 1.203.308 1.773 1.295 2.015 1.052.261 7.86.439 9.537-.317.764-.345 1.472-.877 1.677-1.773h.186c.298 1.11 2.971 2.118 4.22 2.305 3.4.513 7.711 0 9.35-3.266.383-.755.653-1.52.587-2.677-.046-.97-.521-1.717-.93-2.333h6.892l-.736 2.529c-.29.867-.503 1.67-.792 2.565-.866 2.631.056 3.116 2.831 3.116h6.613c1.36 0 2.99-.195 3.791-1.147.205-.243.55-.728.587-1.092.55.15 1.025 1.689 4.34 2.277 3.381.606 7.843.046 9.491-3.256.27-.541.68-1.829.596-2.65a4.792 4.792 0 00-.363-1.315c-.372-.83-.354-.588-.652-1.027h9.687c.587 0 .829-.093 1.304-.093-.038.448-1.267 4.338-1.547 5.169-.14.41-.214.634-.335 1.063-.177.653-.466 1.362-.633 2.071h5.681l2.525-8.107c.12-.401 2.468-7.65 2.505-8.126h-5.682c-.111.476-.288.85-.428 1.343-.149.532-.28.878-.41 1.363l-.838 2.705H77.027c-3.437 0-7.349.877-8.327 4.628-.372 1.408-.26 2.49.317 3.582H60.82c.335-1.455 1.266-3.844 1.676-5.598 1.444 0 2.142.028 3.102-.531.707-.41 1.35-1.213 1.555-2.08h-3.726c.047-.523.736-2.464.913-3.098.298-1.073.708-2.1.95-3.154h-3.167c-.875 1.652-1.527 3.238-3.045 4.59-.606.542-1.695 1.027-2.496 1.325l-.671.262c-.168.056-.047.046-.298.074H47.79c-3.819 0-6.51-.233-9.062 1.185-2.068 1.138-3.353 3.89-2.73 6.055.112.373.261.653.336.97h-6.706l3.856-10.225c.503-1.651-.037-2.733-1.211-3.237-1.034-.448-2.533-.14-3.502.849-1.35 1.371-2.487 2.248-3.68 3.405l-3.12 2.752c-.25.224-.353.401-.633.579.01-.486.345-1.241.485-1.754.149-.541.363-1.185.55-1.782l1.63-5.178c.148-.84.009-1.456-.373-1.885-.922-1.026-3.195-.68-4.266.215-.224.186-.41.298-.606.513l-5.355 6.11c-.345.411-.745.812-1.109 1.223l-1.099 1.231 2.832-9.292c.158-.56.298-.737.363-1.409.224-2.285-2.729-1.707-5.15-1.707H2.253L.54 28.53c-.158.26-.475.774-.54 1.044h8.01L2.329 47.767c2.784 0 4.312.373 5.504-1.38l4.666-5.682c.736-.83 4.415-5.393 4.723-5.626-.14.606-.373 1.231-.55 1.782-.205.644-.373 1.25-.559 1.866-.354 1.157-2.216 6.437-2.16 7.547.093 1.904 2.365 1.838 3.017 1.521.4-.196.978-.746 1.239-1.092.652-.877.102-.345 1.08-1.334l2.468-2.379c.215-.214.382-.4.606-.606l1.863-1.773.605-.606 1.9-1.763zM44.707 6.157c.103.364.27.392.773.812l6.464 5.28c.429.364.429.458 1.053.626 1.592.429 14.008 3.89 14.269 4.086.158.112.27.252.447.392l5.067 4.16c.354.28.587.477.922.756.326.28.605.467.922.747l3.698 3.013c.344-.084 2.645-1.8 3.082-2.136 1.025-.774 2.05-1.446 3.083-2.23l7.694-5.542c.27-.195.503-.354.764-.54.27-.206.53-.365.81-.588.791-.616.726-.243 2.17-.252 1.462-.01 3.428.158 5.123.186.531.01.642.103 1.201.103 1.882 0 3.558.196 5.123.186.587 0 .829.094 1.304.094-.093-.364-.093-.234-.941-.541-3.828-1.418-8.513-3.406-12.22-4.646-1.593-.532-2.999-1.036-4.582-1.568-.392-.13-17.995-6.213-18.386-6.213l-6.865 6.465c-1.332 1.12-.363 1.138-2.412.774L52.987 7.66a120.4 120.4 0 00-4.088-.756 59.349 59.349 0 01-2.04-.383l-2.152-.364z" fill="#FEFEFE"/><path d="M46.104 24.163c.745 0 1.248.084 1.863.094 1.062.018 1.816.158 2.794.186l2.86.215c1.378.186 2.533.14 3.735.27 2.58.28 6.836.383 9.258.71.559.074 1.388.102 1.928.12l7.544.56c-.112-.4-.382-.466-.67-.727l-5.43-4.441c-.28-.224-.485-.41-.764-.634-.727-.597-2.534-2.24-3.242-2.445l-3.343-.942c-.941-.29-10.562-2.948-10.935-3.153l-1.574-1.316c-.14-.121-.196-.196-.335-.317l-1.155-.98c-.168-.149-.196-.149-.363-.289-.997-.849-6.045-5.374-6.52-5.504L35.7 4.45c-1.547-.298-3.251-.578-4.797-.886-3.213-.625-6.436-1.157-9.593-1.773a197.9 197.9 0 00-4.797-.886c-.736-.13-1.584-.317-2.357-.439-.41-.065-2.18-.354-2.421-.466.102.364.167.261 1.155.616C18.134 2.49 23.61 4.627 28.864 6.54l12.704 4.72c.224.15.196.253.308.626l4.228 12.277zm42.463 5.412c1.872 0 15.61-.103 16.746.009 1.426.15 3.177.728 3.177 2.416v.56c0 1.875-1.882 3.181-3.167 3.825-.727.364-4.443 1.81-5.123 1.866.037.457.391 1.036.559 1.4l2.422 5.41c.819 1.652 1.015 2.706 3.259 2.706h5.682c.829 0 1.509-.187 2.049-.466.456-.234 1.155-.7 1.211-1.306h.186c.186 2.192 3.707 1.772 5.309 1.772 2.152 0 2.627-.914 3.353-1.4.028 1.074 1.146 1.4 2.236 1.4h6.519c1.686 0 3.326-1.148 3.447-2.612h-6.334l2.543-7.156a8.64 8.64 0 00.344-1.054h-5.774l-2.152 6.139c-.121.326-.242.643-.372 1.026-.121.354-.27.644-.364 1.035h-3.073c.037-.42.521-1.52.689-2.015l2.198-6.195h-5.775l-1.481 4.021c-.288.812-1.397 3.536-1.406 4.19h-6.147c-.093-.411-.475-1.12-.652-1.493l-1.053-2.305c-.139-.326-.205-.494-.344-.774-.131-.261-.196-.494-.336-.784-.149-.307-.279-.429-.307-.811.987-.084 4.434-2.025 5.402-2.706 1.444-1.026 3.353-2.883 3.353-4.851 0-2.24-.279-3.452-2.366-4.721-1.061-.644-3.306-1.157-4.992-1.157H91.175c-.27 0-.578.635-.717.868l-1.891 3.163z" fill="#FEFEFE"/></svg>